<svg width="108" height="107" viewBox="0 0 108 107" fill="none" xmlns="http://www.w3.org/2000/svg">
<g filter="url(#filter0_d)">
<path d="M22.739 83.6301C20.2005 81.0917 20.2005 76.9761 22.739 74.4377L77.5805 19.5962C80.1189 17.0578 84.2345 17.0578 86.7729 19.5962C89.3113 22.1346 89.3113 26.2502 86.7729 28.7886L31.9313 83.6301C29.3929 86.1685 25.2774 86.1685 22.739 83.6301Z" fill="white"/>
<path d="M21.5962 19.5962C24.1346 17.0578 28.2502 17.0578 30.7886 19.5962L85.6301 74.4377C88.1685 76.9761 88.1685 81.0917 85.6301 83.6301C83.0917 86.1685 78.9761 86.1685 76.4377 83.6301L21.5962 28.7886C19.0578 26.2502 19.0578 22.1346 21.5962 19.5962Z" fill="white"/>
</g>
<defs>
<filter id="filter0_d" x="-12" y="-12" width="132" height="132" filterUnits="userSpaceOnUse" color-interpolation-filters="sRGB">
<feFlood flood-opacity="0" result="BackgroundImageFix"/>
<feColorMatrix in="SourceAlpha" type="matrix" values="0 0 0 0 0 0 0 0 0 0 0 0 0 0 0 0 0 0 127 0" result="hardAlpha"/>
<feOffset dy="2"/>
<feGaussianBlur stdDeviation="9.5"/>
<feColorMatrix type="matrix" values="0 0 0 0 1 0 0 0 0 1 0 0 0 0 1 0 0 0 0.25 0"/>
<feBlend mode="normal" in2="BackgroundImageFix" result="effect1_dropShadow"/>
<feBlend mode="normal" in="SourceGraphic" in2="effect1_dropShadow" result="shape"/>
</filter>
</defs>
</svg>
